<svg id="svg-source" height="0" version="1.1" 
  xmlns="http://www.w3.org/2000/svg" style="position:absolute; margin-left: -100%" 
  xmlns:xlink="http://www.w3.org/1999/xlink">
  <g id="clock-time" data-iconmelon="Streamline Icon Set:fe348b80c6f3b95d17714a167bc4e3da">
    <g id="Expanded">
      <g>
        <g>
          <path  d="M28,1.333c1.471,0,2.667,1.196,2.667,2.667v24c0,1.471-1.196,2.667-2.667,2.667H4
        c-1.471,0-2.667-1.196-2.667-2.667V4c0-1.471,1.196-2.667,2.667-2.667H28 M28,0H4C1.8,0,0,1.8,0,4v24c0,2.2,1.8,4,4,4h24
        c2.2,0,4-1.8,4-4V4C32,1.8,30.2,0,28,0L28,0z"></path>
        </g>
        <g>
          <path  d="M16,5.333c5.882,0,10.667,4.785,10.667,10.667c0,5.882-4.785,10.667-10.667,10.667
        c-5.881,0-10.667-4.785-10.667-10.667C5.333,10.119,10.119,5.333,16,5.333 M16,4C9.373,4,4,9.373,4,16c0,6.628,5.373,12,12,12
        c6.626,0,12-5.372,12-12C28,9.373,22.626,4,16,4L16,4z"></path>
        </g>
        <g>
          <path  d="M20,16.667h-4.667V9.333c0-0.369,0.299-0.667,0.667-0.667s0.667,0.298,0.667,0.667v6H20
        c0.368,0,0.667,0.297,0.667,0.666S20.368,16.667,20,16.667z"></path>
        </g>
      </g>
    </g>
  </g>
  <g id="happy-smiley" data-iconmelon="Streamline Icon Set:4899c398e684096163eae46cf618ad3a">
    <g id="Expanded">
      <g>
        <g>
          <path  d="M16,32C7.178,32,0,24.821,0,16C0,7.178,7.178,0,16,0c8.821,0,16,7.178,16,16C32,24.821,24.821,32,16,32z
         M16,1.333C7.913,1.333,1.333,7.913,1.333,16c0,8.087,6.579,14.667,14.667,14.667c8.087,0,14.667-6.58,14.667-14.667
        C30.667,7.913,24.087,1.333,16,1.333z"></path>
        </g>
        <g>
          <path  d="M16,28c-5.881,0-10.667-4.785-10.667-10.667c0-0.368,0.299-0.666,0.667-0.666s0.667,0.298,0.667,0.666
        c0,5.147,4.187,9.334,9.333,9.334c5.147,0,9.333-4.187,9.333-9.334c0-0.368,0.299-0.666,0.667-0.666s0.667,0.298,0.667,0.666
        C26.667,23.215,21.882,28,16,28z"></path>
        </g>
        <g>
          <path  d="M12.667,14C12.299,14,12,13.702,12,13.333c0-1.103-0.897-2-2-2s-2,0.897-2,2C8,13.702,7.701,14,7.333,14
        c-0.368,0-0.667-0.298-0.667-0.667C6.667,11.496,8.162,10,10,10s3.333,1.496,3.333,3.333C13.333,13.702,13.035,14,12.667,14z"></path>
        </g>
        <g>
          <path  d="M24.667,14C24.299,14,24,13.702,24,13.333c0-1.103-0.897-2-2-2s-2,0.897-2,2
        C20,13.702,19.701,14,19.333,14c-0.367,0-0.666-0.298-0.666-0.667C18.667,11.496,20.162,10,22,10s3.333,1.496,3.333,3.333
        C25.333,13.702,25.034,14,24.667,14z"></path>
        </g>
      </g>
    </g>
  </g>
  <g id="design-pencil-rule" data-iconmelon="Streamline Icon Set:63d24eb28b16a3e01867a12dff807424">
    <g id="Expanded">
      <g>
        <g>
          <path  d="M28,32h-9.333C18.298,32,18,31.701,18,31.333V0.667C18,0.299,18.298,0,18.667,0H28
        c0.368,0,0.667,0.299,0.667,0.667v30.667C28.667,31.701,28.368,32,28,32z M19.333,30.667h8V1.333h-8V30.667z"></path>
        </g>
        <g>
          <rect x="18.667" y="5.333"  width="3.333" height="1.333"></rect>
        </g>
        <g>
          <rect x="18.667" y="9.333"  width="3.333" height="1.333"></rect>
        </g>
        <g>
          <rect x="18.667" y="13.333"  width="3.333" height="1.333"></rect>
        </g>
        <g>
          <rect x="18.667" y="17.333"  width="3.333" height="1.334"></rect>
        </g>
        <g>
          <rect x="18.667" y="21.333"  width="3.333" height="1.334"></rect>
        </g>
        <g>
          <rect x="18.667" y="25.333"  width="3.333" height="1.334"></rect>
        </g>
        <g>
          <path  d="M9.333,30.667H6.666c-1.838,0-3.333-1.496-3.333-3.334V8c0-0.131,0.039-0.261,0.112-0.37l4-6
        c0.247-0.371,0.861-0.371,1.109,0l4,6c0.072,0.109,0.111,0.239,0.111,0.37v19.333C12.666,29.171,11.171,30.667,9.333,30.667z
         M4.666,8.202v19.131c0,1.104,0.897,2,2,2h2.667c1.103,0,2-0.896,2-2V8.202L8,3.202L4.666,8.202z"></path>
        </g>
        <g>
          <path  d="M12,26.667H4c-0.369,0-0.667-0.299-0.667-0.667S3.631,25.333,4,25.333h8c0.368,0,0.666,0.299,0.666,0.667
        S12.368,26.667,12,26.667z"></path>
        </g>
        <g>
          <path  d="M12,24H4c-0.369,0-0.667-0.299-0.667-0.667c0-0.367,0.298-0.666,0.667-0.666h8
        c0.368,0,0.666,0.299,0.666,0.666C12.666,23.701,12.368,24,12,24z"></path>
        </g>
        <g>
          <path  d="M6.666,24C6.298,24,6,23.701,6,23.333V10.667C6,10.299,6.298,10,6.666,10
        c0.369,0,0.667,0.299,0.667,0.667v12.667C7.333,23.701,7.035,24,6.666,24z"></path>
        </g>
        <g>
          <path  d="M9.333,24c-0.369,0-0.667-0.299-0.667-0.667V10.667C8.666,10.299,8.964,10,9.333,10S10,10.299,10,10.667
        v12.667C10,23.701,9.702,24,9.333,24z"></path>
        </g>
        <g>
          <rect x="6" y="4.667"  width="4" height="1.333"></rect>
        </g>
        <g>
          <path  d="M6,11.333c-1.471,0-2.667-1.196-2.667-2.667C3.333,8.299,3.631,8,4,8c0.368,0,0.666,0.299,0.666,0.667
        C4.666,9.402,5.265,10,6,10s1.333-0.598,1.333-1.333C7.333,8.299,7.631,8,8,8c0.368,0,0.666,0.299,0.666,0.667
        C8.666,10.137,7.471,11.333,6,11.333z"></path>
        </g>
        <g>
          <path  d="M10,11.333c-1.471,0-2.667-1.196-2.667-2.667C7.333,8.299,7.631,8,8,8c0.368,0,0.666,0.299,0.666,0.667
        C8.666,9.402,9.265,10,10,10s1.333-0.598,1.333-1.333C11.333,8.299,11.631,8,12,8c0.368,0,0.666,0.299,0.666,0.667
        C12.666,10.137,11.471,11.333,10,11.333z"></path>
        </g>
      </g>
    </g>
  </g>
  <g id="settings-gear" data-iconmelon="Streamline Icon Set:1fdcd4b9f16216cb7ee964b23a239eb1">
    <g id="Expanded">
      <g>
        <g>
          <path  d="M17.333,32h-2.667c-1.103,0-2-0.897-2-2v-2.483c-0.853-0.246-1.675-0.587-2.454-1.018l-1.756,1.757
        c-0.756,0.756-2.072,0.755-2.829,0l-1.886-1.885c-0.378-0.378-0.586-0.88-0.586-1.414s0.208-1.037,0.586-1.414l1.757-1.758
        c-0.43-0.777-0.771-1.599-1.017-2.452H2c-1.103,0-2-0.898-2-2v-2.667c0-0.535,0.208-1.037,0.585-1.414
        c0.378-0.377,0.88-0.586,1.415-0.586h2.483c0.246-0.852,0.586-1.674,1.017-2.453L3.744,8.457c-0.78-0.78-0.78-2.048,0-2.828
        l1.885-1.886c0.755-0.755,2.073-0.756,2.829,0L10.214,5.5c0.779-0.43,1.601-0.771,2.452-1.017V2c0-1.103,0.897-2,2-2h2.667
        c1.104,0,2,0.897,2,2v2.483c0.854,0.246,1.675,0.587,2.452,1.017l1.757-1.757c0.756-0.755,2.072-0.756,2.829,0l1.886,1.885
        c0.378,0.377,0.586,0.88,0.586,1.414c0,0.534-0.208,1.037-0.586,1.414l-1.756,1.756c0.43,0.779,0.771,1.6,1.018,2.454H30
        c1.103,0,2,0.897,2,2v2.667c0,0.534-0.208,1.037-0.585,1.414S30.534,19.333,30,19.333h-2.483
        c-0.246,0.854-0.587,1.675-1.017,2.453l1.756,1.757c0.78,0.78,0.78,2.048,0,2.828l-1.885,1.886c-0.757,0.755-2.073,0.755-2.829,0
        L21.786,26.5c-0.778,0.431-1.6,0.771-2.452,1.017V30C19.333,31.103,18.437,32,17.333,32z M10.105,24.999
        c0.119,0,0.24,0.031,0.347,0.098c0.944,0.576,1.966,1.001,3.038,1.26c0.3,0.073,0.51,0.34,0.51,0.648V30
        c0,0.368,0.299,0.667,0.667,0.667h2.667C17.7,30.667,18,30.368,18,30v-2.995c0-0.309,0.211-0.575,0.511-0.648
        c1.07-0.259,2.092-0.682,3.036-1.26c0.265-0.16,0.602-0.12,0.819,0.098l2.119,2.119c0.25,0.249,0.693,0.25,0.943,0l1.885-1.887
        c0.261-0.26,0.261-0.682,0-0.942l-2.119-2.119c-0.218-0.217-0.258-0.557-0.097-0.819c0.577-0.943,1-1.965,1.259-3.037
        c0.072-0.299,0.34-0.511,0.648-0.511H30c0.179,0,0.347-0.069,0.472-0.195c0.126-0.124,0.195-0.291,0.195-0.47v-2.667
        c0-0.368-0.3-0.667-0.667-0.667h-2.995c-0.309,0-0.576-0.211-0.648-0.511c-0.259-1.071-0.682-2.094-1.259-3.038
        c-0.161-0.262-0.121-0.601,0.097-0.819l2.119-2.12c0.125-0.125,0.195-0.296,0.195-0.471c0-0.176-0.07-0.348-0.195-0.472
        l-1.885-1.885c-0.253-0.251-0.691-0.251-0.944,0l-2.119,2.12c-0.217,0.219-0.556,0.259-0.819,0.097
        c-0.941-0.576-1.963-1-3.035-1.259C18.211,5.571,18,5.303,18,4.996V2c0-0.368-0.3-0.667-0.667-0.667h-2.667
        C14.299,1.333,14,1.632,14,2v2.996c0,0.308-0.21,0.575-0.51,0.647c-1.07,0.259-2.092,0.682-3.037,1.26
        c-0.263,0.161-0.602,0.121-0.818-0.098l-2.12-2.119c-0.252-0.251-0.691-0.251-0.943,0L4.687,6.571c-0.26,0.26-0.26,0.683,0,0.943
        l2.12,2.119c0.218,0.217,0.258,0.557,0.097,0.819c-0.577,0.944-1,1.966-1.259,3.037C5.572,13.789,5.304,14,4.996,14H2
        c-0.178,0-0.346,0.069-0.472,0.195c-0.125,0.125-0.194,0.292-0.194,0.471v2.667c0,0.367,0.299,0.666,0.667,0.666h2.996
        c0.308,0,0.576,0.211,0.647,0.512c0.26,1.071,0.683,2.094,1.26,3.036c0.161,0.263,0.121,0.601-0.098,0.819l-2.119,2.119
        c-0.124,0.125-0.195,0.297-0.195,0.472c0,0.176,0.071,0.348,0.195,0.472l1.886,1.885c0.251,0.252,0.691,0.252,0.943,0
        l2.119-2.119C9.762,25.065,9.932,24.999,10.105,24.999z"></path>
        </g>
        <g>
          <path  d="M16,22.667c-3.676,0-6.667-2.991-6.667-6.667c0-3.676,2.99-6.667,6.667-6.667
        c3.676,0,6.667,2.99,6.667,6.667C22.667,19.676,19.677,22.667,16,22.667z M16,10.667c-2.941,0-5.333,2.393-5.333,5.333
        c0,2.94,2.393,5.333,5.333,5.333c2.94,0,5.333-2.393,5.333-5.333C21.333,13.059,18.941,10.667,16,10.667z"></path>
        </g>
      </g>
    </g>
  </g>
  <g id="stock" data-iconmelon="Streamline Icon Set:49c0a10e67f16d7248828f9c05dcb38f">
    <g id="Expanded">
      <g>
        <g>
          <path  d="M27.334,24H4.667C4.298,24,4,23.701,4,23.333V8.667C4,8.299,4.298,8,4.667,8h2v1.333H5.333v13.334h21.333
        V20H28v3.333C28,23.701,27.701,24,27.334,24z"></path>
        </g>
        <g>
          <path  d="M31.334,18.667H8.667C8.298,18.667,8,18.368,8,18V3.334c0-0.368,0.298-0.667,0.667-0.667h22.667
        C31.701,2.667,32,2.966,32,3.334V18C32,18.368,31.701,18.667,31.334,18.667z M9.333,17.333h21.333V4H9.333V17.333z"></path>
        </g>
        <g>
          <path  d="M23.334,29.333H0.667C0.298,29.333,0,29.034,0,28.667V14c0-0.368,0.298-0.667,0.667-0.667h2v1.334H1.333
        V28h21.333v-2.667H24v3.334C24,29.034,23.701,29.333,23.334,29.333z"></path>
        </g>
      </g>
    </g>
  </g>
  <g id="settings-toolkit" data-iconmelon="Streamline Icon Set:d9ee473459f67edeed450e1389c157a9">
    <g id="Expanded">
      <g>
        <g>
          <path  d="M6.551,31.998L6.551,31.998c-0.885,0-1.745-0.175-2.557-0.519c-0.223-0.094-0.384-0.293-0.431-0.53
        c-0.046-0.237,0.029-0.481,0.199-0.652l2.571-2.57V25.67H4.276l-2.57,2.569c-0.171,0.171-0.415,0.247-0.653,0.199
        c-0.237-0.046-0.436-0.207-0.53-0.431c-1.045-2.469-0.497-5.286,1.396-7.179c1.234-1.236,2.876-1.916,4.623-1.916
        c0.717,0,1.419,0.115,2.091,0.342L19.252,8.636c-0.794-2.351-0.202-4.939,1.572-6.714c1.235-1.234,2.877-1.914,4.624-1.914
        c0.885,0,1.745,0.174,2.557,0.518c0.224,0.095,0.385,0.293,0.432,0.53c0.046,0.237-0.028,0.482-0.2,0.653l-2.57,2.571v2.057
        h2.058l2.569-2.57c0.172-0.171,0.413-0.247,0.653-0.199c0.236,0.045,0.436,0.207,0.529,0.431c1.045,2.469,0.497,5.287-1.396,7.18
        c-1.233,1.234-2.876,1.914-4.622,1.914c-0.718,0-1.419-0.114-2.091-0.341L12.747,23.369c0.794,2.351,0.202,4.939-1.574,6.715
        C9.94,31.317,8.297,31.998,6.551,31.998z M5.652,30.465c0.294,0.052,0.595,0.078,0.899,0.078c1.359,0,2.635-0.528,3.595-1.487
        c1.473-1.473,1.898-3.665,1.085-5.585c-0.116-0.273-0.054-0.589,0.156-0.799L22.669,11.39c0.211-0.209,0.526-0.272,0.798-0.156
        c0.632,0.267,1.303,0.403,1.99,0.403c1.358,0,2.635-0.528,3.595-1.488c1.199-1.199,1.704-2.876,1.411-4.496l-1.926,1.925
        C28.4,7.714,28.216,7.79,28.023,7.79h-3.085c-0.4,0-0.727-0.325-0.727-0.727V3.978c0-0.193,0.076-0.377,0.213-0.514l1.924-1.923
        c-0.295-0.052-0.595-0.079-0.899-0.079c-1.358,0-2.636,0.529-3.596,1.488c-1.472,1.473-1.897,3.665-1.085,5.585
        c0.115,0.272,0.054,0.588-0.155,0.798L9.33,20.616c-0.209,0.209-0.526,0.271-0.798,0.155c-0.632-0.267-1.301-0.403-1.99-0.403
        c-1.359,0-2.635,0.528-3.595,1.489c-1.199,1.199-1.705,2.876-1.411,4.496l1.925-1.925c0.137-0.138,0.321-0.213,0.514-0.213h3.085
        c0.401,0,0.727,0.325,0.727,0.727v3.086c0,0.192-0.076,0.378-0.213,0.514L5.652,30.465z"></path>
        </g>
        <g>
          <path  d="M29.091,31.998c-0.776,0-1.508-0.303-2.057-0.853L20.35,24.46c-0.284-0.283-0.284-0.744,0-1.028
        l3.085-3.084c0.283-0.284,0.744-0.284,1.028,0l6.685,6.685c0.55,0.549,0.853,1.28,0.853,2.057c0,0.777-0.304,1.509-0.853,2.058
        S29.868,31.998,29.091,31.998z M21.894,23.946l6.169,6.171c0.549,0.549,1.507,0.55,2.057,0c0.275-0.274,0.426-0.64,0.426-1.028
        s-0.15-0.754-0.425-1.028l-6.17-6.171L21.894,23.946z"></path>
        </g>
        <g>
          <rect x="4.155" y="9.292" transform="matrix(-0.7071 -0.7071 0.7071 -0.7071 10.024 24.1904)"  width="11.734" height="1.454"></rect>
        </g>
        <g>
          <path  d="M19.321,26.217c-0.187,0-0.373-0.071-0.515-0.213c-0.284-0.284-0.284-0.744,0-1.028l6.17-6.171
        c0.284-0.284,0.744-0.284,1.028,0c0.284,0.285,0.284,0.744,0,1.028l-6.17,6.171C19.693,26.146,19.507,26.217,19.321,26.217z"></path>
        </g>
        <g>
          <path  d="M4.845,7.626c-0.187,0-0.373-0.071-0.514-0.213L0.217,3.3C0.081,3.164,0.004,2.979,0.004,2.786
        c0-0.194,0.076-0.378,0.213-0.514l2.057-2.057c0.285-0.285,0.744-0.285,1.028,0l4.113,4.114C7.552,4.466,7.628,4.65,7.628,4.843
        c0,0.193-0.076,0.378-0.213,0.514L5.359,7.414C5.217,7.556,5.031,7.626,4.845,7.626z M1.76,2.786l3.085,3.085l1.028-1.028
        L2.788,1.758L1.76,2.786z"></path>
        </g>
        <g>
          <rect x="16.151" y="19.195" transform="matrix(-0.7072 -0.707 0.707 -0.7072 19.9308 48.0993)"  width="7.55" height="1.454"></rect>
        </g>
      </g>
    </g>
  </g>
  <g id="armchair-chair" data-iconmelon="Streamline Icon Set:6c70e6307d42fdec2d39e11764852218">
    <g id="Expanded">
      <g>
        <g>
          <path  d="M25.334,18.667c-0.034,0-0.068-0.003-0.103-0.008c-0.363-0.057-0.613-0.397-0.557-0.761l1.248-8.118
        c0.326-2.117-0.287-4.264-1.682-5.89c-1.395-1.626-3.424-2.558-5.565-2.558h-5.351c-2.142,0-4.17,0.932-5.566,2.559
        C6.365,5.517,5.751,7.664,6.078,9.781l1.249,8.117c0.056,0.364-0.194,0.704-0.558,0.761c-0.363,0.052-0.705-0.193-0.76-0.558
        l-1.25-8.117c-0.385-2.503,0.34-5.04,1.988-6.961C8.395,1.102,10.792,0,13.325,0h5.35c2.532,0,4.93,1.102,6.577,3.023
        c1.649,1.921,2.373,4.458,1.987,6.96l-1.248,8.118C25.941,18.431,25.657,18.667,25.334,18.667z"></path>
        </g>
        <g>
          <path  d="M8,32c-0.368,0-0.667-0.298-0.667-0.667V30c0-0.368,0.299-0.667,0.667-0.667S8.667,29.632,8.667,30v1.333
        C8.667,31.702,8.368,32,8,32z"></path>
        </g>
        <g>
          <path  d="M24,32c-0.368,0-0.667-0.298-0.667-0.667V30c0-0.368,0.299-0.667,0.667-0.667s0.667,0.299,0.667,0.667
        v1.333C24.667,31.702,24.368,32,24,32z"></path>
        </g>
        <g>
          <path  d="M24.667,30.667H7.333c-2.573,0-4.667-2.094-4.667-4.667v-2.667c0-0.403-0.241-0.766-0.614-0.922
        C0.805,21.892,0,20.684,0,19.333C0,17.495,1.496,16,3.333,16c2.94,0,5.333,2.393,5.333,5.333v0.975
        c1.181-0.422,3.465-0.975,7.333-0.975c3.868,0,6.152,0.553,7.333,0.975v-0.975c0-2.94,2.393-5.333,5.334-5.333
        C30.505,16,32,17.495,32,19.333c0,1.351-0.806,2.56-2.053,3.078c-0.373,0.156-0.614,0.519-0.614,0.922V26
        C29.333,28.573,27.239,30.667,24.667,30.667z M3.333,17.333c-1.103,0-2,0.897-2,2c0,0.811,0.483,1.537,1.232,1.848
        C3.437,21.543,4,22.389,4,23.333V26c0,1.838,1.496,3.333,3.333,3.333h17.333C26.505,29.333,28,27.838,28,26v-2.667
        c0-0.943,0.563-1.789,1.435-2.152c0.749-0.311,1.232-1.037,1.232-1.848c0-1.103-0.897-2-2-2c-2.206,0-4,1.795-4,4v3.246
        l-1.037-0.691c-0.013-0.009-1.988-1.221-7.63-1.221c-5.642,0-7.617,1.212-7.637,1.225l-1.024,0.651l-0.006-3.21
        C7.333,19.128,5.54,17.333,3.333,17.333z"></path>
        </g>
        <g>
          <path  d="M19.333,14c-0.17,0-0.341-0.065-0.471-0.195l-1.334-1.333c-0.26-0.261-0.26-0.682,0-0.942l1.334-1.333
        c0.26-0.261,0.682-0.261,0.942,0s0.261,0.682,0,0.943L18.942,12l0.862,0.862c0.261,0.261,0.261,0.682,0,0.943
        C19.675,13.935,19.504,14,19.333,14z"></path>
        </g>
        <g>
          <path  d="M12.667,14c-0.17,0-0.341-0.065-0.471-0.195c-0.261-0.261-0.261-0.682,0-0.943L13.057,12l-0.862-0.862
        c-0.261-0.261-0.261-0.682,0-0.943s0.682-0.261,0.943,0l1.333,1.333c0.261,0.261,0.261,0.682,0,0.942l-1.333,1.333
        C13.008,13.935,12.837,14,12.667,14z"></path>
        </g>
        <g>
          <path  d="M16,14.667c-1.471,0-2.667-1.196-2.667-2.667S14.529,9.333,16,9.333s2.667,1.196,2.667,2.667
        S17.471,14.667,16,14.667z M16,10.667c-0.735,0-1.333,0.598-1.333,1.333s0.598,1.333,1.333,1.333s1.333-0.598,1.333-1.333
        S16.735,10.667,16,10.667z"></path>
        </g>
      </g>
    </g>
  </g>
</svg>